<?xml version="1.0" encoding="utf-8"?>
<!-- Uploaded to: SVG Repo, www.svgrepo.com, Generator: SVG Repo Mixer Tools -->
<svg version="1.1" id="Uploaded to svgrepo.com" xmlns="http://www.w3.org/2000/svg" xmlns:xlink="http://www.w3.org/1999/xlink" 
	 width="800px" height="800px" viewBox="0 0 32 32" xml:space="preserve">
<style type="text/css">
	.pictogram_een{fill:#F4D6B0;}
	.pictogram_drie{fill:#F27261;}
	.pictogram_vijf{fill:#01A59C;}
	.pictogram_zes{fill:#0C6667;}
	.st0{fill:#F8AD89;}
	.st1{fill:#E54D2E;}
	.st2{fill:#01A59C;}
	.st3{fill:none;}
</style>
<g>
	<path class="pictogram_vijf" d="M29,0H16v32h13c1.65,0,3-1.35,3-3V3C32,1.35,30.65,0,29,0z"/>
	<path class="pictogram_zes" d="M3,0C1.35,0,0,1.35,0,3v26c0,1.65,1.35,3,3,3h13V0H3z"/>
	<path class="pictogram_een" d="M21.088,31.188c-0.384,0-0.768-0.146-1.061-0.439l-1.414-1.414c-0.586-0.586-0.586-1.535,0-2.121
		s1.535-0.586,2.121,0l1.414,1.414c0.586,0.586,0.586,1.535,0,2.121C21.855,31.041,21.472,31.188,21.088,31.188z M15.249,25.971h-2
		c-0.829,0-1.5-0.672-1.5-1.5s0.671-1.5,1.5-1.5h2c0.829,0,1.5,0.672,1.5,1.5S16.078,25.971,15.249,25.971z"/>
	<path class="pictogram_vijf" d="M4.908,4.963L7.816,10H2L4.908,4.963z M7.434,6h5.816l-2.908-5.037L7.434,6z"/>
	<polygon class="pictogram_zes" points="27.092,12.963 30,18 24.184,18 	"/>
	<path class="pictogram_een" d="M5.997,17.597c0.728,0.395,1.639,0.128,2.035-0.6c0.284-0.52,0.607-1.018,0.961-1.48
		c0.503-0.657,0.379-1.6-0.279-2.103c-0.657-0.505-1.599-0.38-2.103,0.278c-0.448,0.585-0.856,1.214-1.213,1.869
		C5.001,16.289,5.27,17.2,5.997,17.597z"/>
	<path class="pictogram_een" d="M21.897,6.896c-0.722,0.043-1.415,0.104-2.079,0.185c-0.823,0.099-1.41,0.845-1.311,1.668
		c0.091,0.762,0.739,1.321,1.487,1.321c0,0,1.262-0.131,2.081-0.18c0.827-0.049,1.458-0.759,1.409-1.586
		C23.435,7.478,22.725,6.837,21.897,6.896z"/>
	<path class="pictogram_een" d="M13.64,8.569c-0.684,0.268-1.348,0.571-1.972,0.902c-0.731,0.389-1.01,1.296-0.622,2.028
		c0.27,0.508,0.789,0.797,1.327,0.797c0.486,0,1.101-0.441,2.36-0.933c0.771-0.302,1.152-1.172,0.851-1.943
		C15.281,8.648,14.414,8.271,13.64,8.569z"/>
	<path class="pictogram_drie" d="M8.705,24.5l1.838-1.838c0.609-0.609,0.609-1.596,0-2.205c-0.609-0.609-1.597-0.609-2.205,0
		L6.5,22.295l-1.838-1.838c-0.225-0.225-0.506-0.338-0.795-0.397c-0.495-0.101-1.026,0.013-1.41,0.397
		c-0.609,0.609-0.609,1.596,0,2.205L4.295,24.5l-1.838,1.838c-0.609,0.609-0.609,1.596,0,2.205C2.761,28.848,3.16,29,3.559,29
		s0.799-0.152,1.103-0.457L6.5,26.705l1.838,1.838C8.643,28.848,9.042,29,9.441,29c0.399,0,0.798-0.152,1.103-0.457
		c0.609-0.609,0.609-1.596,0-2.205L8.705,24.5z"/>
	<path class="pictogram_een" d="M21.152,0.854l-0.04,1.999c-0.017,0.828,0.641,1.514,1.469,1.53c0.011,0,0.021,0,0.031,0
		c0.814,0,1.483-0.652,1.499-1.47l0.04-1.999C24.158,0.572,24.045,0.257,23.856,0H21.44C21.265,0.239,21.159,0.531,21.152,0.854z"/>
</g>
</svg>